<?xml version="1.0" encoding="UTF-8" ?>
<!DOCTYPE svg PUBLIC "-//W3C//DTD SVG 1.1//EN" "http://www.w3.org/Graphics/SVG/1.1/DTD/svg11.dtd">
<svg width="26pt" height="23pt" viewBox="0 0 26 23" version="1.1" xmlns="http://www.w3.org/2000/svg">
<path fill="#1a1a1a" d=" M 0.00 0.00 L 26.00 0.00 L 26.00 23.00 L 0.00 23.00 L 0.00 0.00 Z" />
<path fill="#fefefe" d=" M 4.86 13.21 C 1.72 8.27 8.85 1.04 13.82 4.12 C 16.39 5.94 15.13 9.26 14.09 11.59 C 15.49 13.15 16.89 14.93 19.09 15.32 C 18.72 14.58 17.99 13.11 17.62 12.37 C 19.78 11.14 23.26 14.50 22.12 16.68 C 21.26 16.49 19.53 16.10 18.66 15.91 C 19.80 17.30 23.68 20.30 20.16 21.02 C 17.33 18.72 14.99 15.89 12.32 13.42 C 10.02 14.40 6.74 15.64 4.86 13.21 Z" />
<path fill="#1a1a1a" d=" M 6.64 9.00 C 9.12 8.63 10.03 3.83 12.73 6.21 C 14.19 7.87 12.25 9.46 10.71 9.90 C 10.24 11.20 8.76 13.66 7.22 12.07 C 5.80 11.54 6.44 10.05 6.64 9.00 Z" />
</svg>
